PathFileType	4	(X/Y/Z)	/Users/itak/Documents/Research/Walk-IL/dataset/trc/00576_00009.trc
DataRate	CameraRate	NumFrames	NumMarkers	Units	OrigDataRate	OrigDataStartFrame	OrigNumFrames
100.000000	100.000000	4	53	mm	100.000000	65	527
Frame#	Time	RPSI			LPSI			L3			STRN			T10			C7			CLAV			RBAK			LBAK			LSHO			LUPA			LAEL			LAOL			LWTS			LWPS			LFRA			LIFD			LHPS			LHTS			RSHO			RUPA			RAEL			RAOL			RWTS			RWPS			RFRA			RIFD			RHTS			RHPS			RBHD			LFHD			RFHD			LBHD			LHIP			RHIP			RASI			LASI			LKNE			LTHI			LANK			LTIP			LTOE			LMT1			LMT5			LHEE			RKNE			RTHI			RANK			RTIP			RTOE			RMT1			RMT5			RHEE			
		X1	Y1	Z1	X2	Y2	Z2	X3	Y3	Z3	X4	Y4	Z4	X5	Y5	Z5	X6	Y6	Z6	X7	Y7	Z7	X8	Y8	Z8	X9	Y9	Z9	X10	Y10	Z10	X11	Y11	Z11	X12	Y12	Z12	X13	Y13	Z13	X14	Y14	Z14	X15	Y15	Z15	X16	Y16	Z16	X17	Y17	Z17	X18	Y18	Z18	X19	Y19	Z19	X20	Y20	Z20	X21	Y21	Z21	X22	Y22	Z22	X23	Y23	Z23	X24	Y24	Z24	X25	Y25	Z25	X26	Y26	Z26	X27	Y27	Z27	X28	Y28	Z28	X29	Y29	Z29	X30	Y30	Z30	X31	Y31	Z31	X32	Y32	Z32	X33	Y33	Z33	X34	Y34	Z34	X35	Y35	Z35	X36	Y36	Z36	X37	Y37	Z37	X38	Y38	Z38	X39	Y39	Z39	X40	Y40	Z40	X41	Y41	Z41	X42	Y42	Z42	X43	Y43	Z43	X44	Y44	Z44	X45	Y45	Z45	X46	Y46	Z46	X47	Y47	Z47	X48	Y48	Z48	X49	Y49	Z49	X50	Y50	Z50	X51	Y51	Z51	X52	Y52	Z52	X53	Y53	Z53	

66	0.65	-1194.346069335938	1010.167785644531	-215.3519287109375	-1124.313842773438	1012.745300292969	-329.3823852539062	-1154.447875976562	1105.591430664062	-273.3789672851562	-946.2283935546875	1292.77734375	-167.8621826171875	-1163.6552734375	1230.99169921875	-278.1313171386719	-1125.351684570312	1505.015869140625	-244.4828643798828	-962.959716796875	1404.197143554688	-176.1123199462891	-1227.034545898438	1379.946411132812	-200.8265075683594	-1114.723999023438	1453.614013671875	-342.7049865722656	-991.0513916015625	1477.705200195312	-373.1139526367188	-964.9915161132812	1351.941650390625	-449.5016174316406	-931.4992065429688	1131.989624023438	-462.3922424316406	-1032.83740234375	1122.530639648438	-461.1619567871094	-871.5075073242188	891.9074096679688	-372.6260986328125	-872.991943359375	868.2656860351562	-456.3258361816406	-905.9868774414062	1046.55859375	-456.6282348632812	-882.347412109375	722.8090209960938	-375.9310607910156	-868.8587646484375	808.3314819335938	-445.2635803222656	-846.57763671875	814.135498046875	-381.3353881835938	-1142.961791992188	1466.233764648438	-79.53175354003906	-1188.981201171875	1400.266235351562	-27.9316520690918	-1205.825927734375	1110.025512695312	10.55761241912842	-1246.314819335938	1094.156005859375	-35.78593826293945	-1071.350341796875	886.4501953125	23.36338233947754	-1139.839599609375	866.6251220703125	65.95249176025391	-1200.200805664062	1054.51904296875	20.63722610473633	-1069.308959960938	713.7598266601562	23.96882057189941	-1052.869506835938	794.16064453125	46.46247482299805	-1125.074584960938	792.2703247070312	70.45172882080078	-1089.300170898438	1683.332763671875	-151.5447387695312	-890.7528686523438	1710.215454101562	-208.8088836669922	-968.1111450195312	1707.510009765625	-85.61396789550781	-995.3712768554688	1684.636474609375	-288.1172180175781	-948.2135009765625	939.759765625	-381.6415710449219	-1148.94921875	932.203369140625	-51.76185989379883	-1042.556396484375	966.6171875	-55.68558883666992	-906.0153198242188	962.263916015625	-296.2894287109375	-960.6512451171875	493.6716003417969	-327.5102844238281	-939.2968139648438	659.0672607421875	-355.7013244628906	-1049.911254882812	33.73838424682617	-377.2607727050781	-1023.017150878906	251.4721832275391	-370.573486328125	-891.2213134765625	37.44773101806641	-227.0586700439453	-973.5874633789062	37.30369567871094	-229.1683959960938	-935.31396484375	35.46462631225586	-331.0234985351562	-1136.526123046875	30.03425979614258	-362.3662719726562	-1086.818359375	490.9375915527344	-90.7412109375	-1108.108764648438	777.708740234375	-37.10224151611328	-1180.395141601562	37.07019805908203	-177.9092407226562	-1085.293701171875	346.60009765625	-113.4981384277344	-966.6895141601562	38.25529098510742	-107.2584991455078	-1002.948669433594	37.00337600708008	-175.3401031494141	-1073.272338867188	39.23769378662109	-97.93536376953125	-1202.794311523438	25.73887634277344	-250.2366485595703	
67	0.66	-1194.415161132812	1009.984436035156	-214.4938049316406	-1124.335571289062	1012.604736328125	-328.50439453125	-1154.461303710938	1105.707153320312	-272.4292297363281	-945.88427734375	1292.56640625	-166.9055023193359	-1163.518920898438	1231.06640625	-277.1085205078125	-1124.794555664062	1505.029296875	-243.2858734130859	-962.5089721679688	1403.994995117188	-175.0340423583984	-1226.626831054688	1380.081420898438	-199.6505432128906	-1114.272583007812	1453.676879882812	-341.5559692382812	-990.5780029296875	1477.643310546875	-371.9974365234375	-964.7149658203125	1351.9453125	-448.5391845703125	-931.57373046875	1131.958374023438	-461.7012023925781	-1032.880004882812	1122.615478515625	-460.3708190917969	-871.7697143554688	891.7613525390625	-372.2615051269531	-873.5553588867188	868.1249389648438	-456.1017456054688	-906.1494750976562	1046.494506835938	-456.078857421875	-882.9884033203125	722.4794921875	-375.8078308105469	-869.4861450195312	808.17333984375	-445.1602783203125	-847.0827026367188	813.7863159179688	-381.20947265625	-1142.341918945312	1466.180419921875	-78.34128570556641	-1188.421142578125	1400.25	-26.74770736694336	-1205.632446289062	1109.98388671875	11.57285308837891	-1246.126586914062	1094.219848632812	-34.79378890991211	-1071.484375	886.1814575195312	24.12063789367676	-1139.97412109375	866.4500122070312	66.78024291992188	-1200.0791015625	1054.470458984375	21.62285423278809	-1069.646728515625	713.4849853515625	24.56066703796387	-1053.143920898438	793.863525390625	47.24592208862305	-1125.318481445312	792.0591430664062	71.18204498291016	-1088.44384765625	1683.24609375	-150.2610473632812	-889.9459838867188	1709.862060546875	-207.6114501953125	-967.0892333984375	1707.198120117188	-84.50360107421875	-994.5946044921875	1684.4931640625	-286.9012756347656	-948.2944946289062	939.7733154296875	-380.6898193359375	-1149.0439453125	931.9572143554688	-50.80277252197266	-1042.60791015625	966.4541015625	-54.84536743164062	-905.9891967773438	962.289306640625	-295.3519897460938	-959.8214111328125	493.6397399902344	-326.4519348144531	-938.6729736328125	659.0995483398438	-354.7113952636719	-1049.9052734375	33.76531982421875	-377.2391662597656	-1022.531860351562	251.4919891357422	-370.0358276367188	-891.237060546875	37.44358062744141	-227.0442504882812	-973.5914916992188	37.27499389648438	-229.1477966308594	-935.330322265625	35.47690582275391	-330.9905090332031	-1136.5576171875	30.07952880859375	-362.3418579101562	-1086.32958984375	490.754150390625	-90.15866088867188	-1107.905029296875	777.467041015625	-36.31077194213867	-1180.445556640625	37.05196762084961	-177.8646392822266	-1084.936401367188	346.4217224121094	-113.005859375	-966.6703491210938	38.24262619018555	-107.3087997436523	-1002.954162597656	36.97743988037109	-175.3847198486328	-1073.250610351562	39.24747467041016	-97.96830749511719	-1202.824951171875	25.70990562438965	-250.2095794677734	
68	0.67	-1194.472900390625	1009.804504394531	-213.59521484375	-1124.339477539062	1012.45068359375	-327.597412109375	-1154.461547851562	1105.8388671875	-271.440673828125	-945.5343627929688	1292.35693359375	-165.9106140136719	-1163.371704101562	1231.139526367188	-276.0391235351562	-1124.221435546875	1505.038940429688	-242.0537872314453	-962.0449829101562	1403.790649414062	-173.922607421875	-1226.20166015625	1380.21875	-198.434814453125	-1113.81494140625	1453.741943359375	-340.3662414550781	-990.063232421875	1477.576416015625	-370.8516540527344	-964.4140014648438	1351.938110351562	-447.5416259765625	-931.6614379882812	1131.914184570312	-460.9781799316406	-1032.935668945312	1122.7060546875	-459.5313415527344	-872.0428466796875	891.5930786132812	-371.8851013183594	-874.1353149414062	867.979736328125	-455.8773803710938	-906.3259887695312	1046.42333984375	-455.509521484375	-883.6259765625	722.158447265625	-375.7008666992188	-870.1475830078125	808.0321655273438	-445.0521240234375	-847.5858764648438	813.4446411132812	-381.0993041992188	-1141.706665039062	1466.132446289062	-77.1138916015625	-1187.842651367188	1400.2333984375	-25.52707290649414	-1205.42431640625	1109.940185546875	12.62392425537109	-1245.935180664062	1094.286376953125	-33.75926971435547	-1071.562133789062	885.93310546875	24.89562606811523	-1140.070190429688	866.2976684570312	67.64102172851562	-1199.932006835938	1054.427856445312	22.63930702209473	-1069.899047851562	713.2307739257812	25.14614295959473	-1053.37060546875	793.5823364257812	48.04258728027344	-1125.513549804688	791.8599853515625	71.95050048828125	-1087.559326171875	1683.159423828125	-148.9395751953125	-889.0842895507812	1709.490356445312	-206.4115142822266	-966.0401000976562	1706.882568359375	-83.35908508300781	-993.7923583984375	1684.343017578125	-285.6499328613281	-948.3864135742188	939.7798461914062	-379.6960754394531	-1149.120483398438	931.7385864257812	-49.77969741821289	-1042.6328125	966.2988891601562	-53.97721862792969	-905.96875	962.3062744140625	-294.3992004394531	-958.9384765625	493.6002197265625	-325.3206176757812	-938.0170288085938	659.14892578125	-353.6832275390625	-1049.897583007812	33.79425811767578	-377.218994140625	-1022.026977539062	251.5058898925781	-369.4807434082031	-891.24853515625	37.44218063354492	-227.0338287353516	-973.5947875976562	37.24840545654297	-229.1305236816406	-935.34521484375	35.49002838134766	-330.9570617675781	-1136.589599609375	30.12533950805664	-362.3203735351562	-1085.85986328125	490.5722961425781	-89.59797668457031	-1107.683837890625	777.2225952148438	-35.49919509887695	-1180.510498046875	37.02970886230469	-177.8056640625	-1084.606201171875	346.2538757324219	-112.5190658569336	-966.6531982421875	38.22881317138672	-107.365837097168	-1002.963928222656	36.94839096069336	-175.4384918212891	-1073.233032226562	39.25520324707031	-98.00030517578125	-1202.859130859375	25.67230796813965	-250.1799163818359	
69	0.68	-1194.517456054688	1009.629516601562	-212.6507263183594	-1124.32763671875	1012.289428710938	-326.6576843261719	-1154.445922851562	1105.98779296875	-270.4129638671875	-945.1795654296875	1292.149658203125	-164.8743591308594	-1163.210571289062	1231.21337890625	-274.9226379394531	-1123.6318359375	1505.04541015625	-240.7869415283203	-961.5615234375	1403.587646484375	-172.7839508056641	-1225.758544921875	1380.358032226562	-197.1777038574219	-1113.350219726562	1453.807983398438	-339.1361999511719	-989.5137939453125	1477.509399414062	-369.6788024902344	-964.0958862304688	1351.920654296875	-446.5075073242188	-931.767578125	1131.859130859375	-460.2232360839844	-1033.001098632812	1122.802124023438	-458.6436462402344	-872.3292846679688	891.3936767578125	-371.511962890625	-874.7225952148438	867.833740234375	-455.6533813476562	-906.52587890625	1046.347045898438	-454.9221496582031	-884.2996826171875	721.8273315429688	-375.5868225097656	-870.8307495117188	807.8973388671875	-444.9349365234375	-848.1207275390625	813.0955810546875	-380.984130859375	-1141.0546875	1466.090087890625	-75.85041809082031	-1187.244384765625	1400.21533203125	-24.26712989807129	-1205.193359375	1109.8984375	13.70613861083984	-1245.72900390625	1094.35498046875	-32.6828727722168	-1071.584838867188	885.7073974609375	25.69114303588867	-1140.12646484375	866.1680297851562	68.53720092773438	-1199.755615234375	1054.392822265625	23.68442726135254	-1070.089477539062	713.002685546875	25.75550079345703	-1053.538818359375	793.317626953125	48.83795928955078	-1125.659057617188	791.6758422851562	72.75867462158203	-1086.648681640625	1683.076049804688	-147.5816040039062	-888.1652221679688	1709.108276367188	-205.2091217041016	-964.9774169921875	1706.565551757812	-82.16536712646484	-992.9634399414062	1684.188720703125	-284.3636474609375	-948.4755859375	939.777587890625	-378.6740112304688	-1149.168823242188	931.5560913085938	-48.69145965576172	-1042.636840820312	966.1517944335938	-53.08076858520508	-905.9558715820312	962.3095092773438	-293.4352111816406	-957.9887084960938	493.53955078125	-324.1036376953125	-937.3361206054688	659.2001342773438	-352.6082153320312	-1049.888061523438	33.8256721496582	-377.198974609375	-1021.492919921875	251.5109100341797	-368.8920593261719	-891.2510986328125	37.44348907470703	-227.0294494628906	-973.5968017578125	37.22388458251953	-229.1171417236328	-935.3576049804688	35.50390625	-330.925048828125	-1136.619262695312	30.17062377929688	-362.3022766113281	-1085.410766601562	490.3903198242188	-89.06315612792969	-1107.449096679688	776.9791259765625	-34.67481994628906	-1180.587646484375	37.00232696533203	-177.7340850830078	-1084.297973632812	346.0924682617188	-112.0418930053711	-966.639404296875	38.21583557128906	-107.428108215332	-1002.978210449219	36.91675567626953	-175.4990081787109	-1073.220825195312	39.26124954223633	-98.02997589111328	-1202.895141601562	25.62726593017578	-250.1492309570312	
